<svg xmlns="http://www.w3.org/2000/svg" viewBox="0 0 24 24" fill="none" stroke="#007bff" stroke-width="2" stroke-linecap="round" stroke-linejoin="round">
  <path d="M9.5 2A2.5 2.5 0 0 1 12 4.5v0A2.5 2.5 0 0 1 9.5 7h0A2.5 2.5 0 0 1 7 4.5v0A2.5 2.5 0 0 1 9.5 2z"/>
  <path d="M14.5 2A2.5 2.5 0 0 1 17 4.5v0A2.5 2.5 0 0 1 14.5 7h0A2.5 2.5 0 0 1 12 4.5v0A2.5 2.5 0 0 1 14.5 2z"/>
  <path d="M12 14.5a2.5 2.5 0 0 1 2.5 2.5v0a2.5 2.5 0 0 1-5 0v0a2.5 2.5 0 0 1 2.5-2.5z"/>
  <path d="M18 12.5a2.5 2.5 0 0 1 2.5 2.5v0a2.5 2.5 0 0 1-5 0v0a2.5 2.5 0 0 1 2.5-2.5z"/>
  <path d="M6 12.5a2.5 2.5 0 0 1 2.5 2.5v0a2.5 2.5 0 0 1-5 0v0a2.5 2.5 0 0 1 2.5-2.5z"/>
  <path d="M12 22a2.5 2.5 0 0 1-2.5-2.5V17a2.5 2.5 0 0 1 5 0v2.5A2.5 2.5 0 0 1 12 22z"/>
  <path d="M19 16.5a2.5 2.5 0 0 1-2.5-2.5V12a2.5 2.5 0 0 1 5 0v2.5a2.5 2.5 0 0 1-2.5 2.5z"/>
  <path d="M5 16.5a2.5 2.5 0 0 1-2.5-2.5V12a2.5 2.5 0 0 1 5 0v2.5A2.5 2.5 0 0 1 5 16.5z"/>
  <path d="M16 9.5a2.5 2.5 0 0 1-2.5-2.5V4.5a2.5 2.5 0 0 1 5 0v2.5a2.5 2.5 0 0 1-2.5 2.5z"/>
  <path d="M8 9.5A2.5 2.5 0 0 1 5.5 7V4.5a2.5 2.5 0 0 1 5 0v2.5A2.5 2.5 0 0 1 8 9.5z"/>
</svg> 